<?xml version="1.0" encoding="utf-8"?>
<!-- Generator: Adobe Illustrator 19.2.1, SVG Export Plug-In . SVG Version: 6.00 Build 0)  -->
<svg version="1.1" id="Layer_1" xmlns="http://www.w3.org/2000/svg" xmlns:xlink="http://www.w3.org/1999/xlink" x="0px" y="0px"
	 viewBox="0 0 142 54" style="enable-background:new 0 0 142 54;" xml:space="preserve">
<style type="text/css">
	.st0{fill:#09B39D;}
	.st1{fill:#010101;}
</style>
<title>logo2</title>
<path class="st0" d="M49.5,44.5L49.5,44.5l4.7-2.7c3.2-1.7,5.1-5.1,5.1-8.6l0.1-14.6c0.1-3.6-1.8-6.9-4.9-8.6L41.8,2.6
	c-3.1-1.9-6.9-1.9-10,0L19,9.9c-3.2,1.7-4.4,3.9-5.7,7l-2.4,1.5c-2.4,1.5-2,4.5,0.1,3.3l2.5-1.5c0.9-0.5,1.7-0.3,1.9,0.7l0,0
	c0,1.1-0.6,2.1-1.6,2.7L8,26.9c-2.7,1.6-1.9,4.5,0.1,3.3l3.2-1.9L12,28c0.9-0.5,1.7-0.3,1.9,0.7l0,0c-0.1,0.9-0.5,1.8-1.2,2.4l0,0
	l-1.2,0.7C8.7,33.3,9.9,36,11.6,35l2.3-1.3c0,1.1,0.2,2.1,0.7,3.1l-6.9,4c-0.7,0.4-0.9,1.4-0.4,2c0.4,0.6,1.2,0.8,1.9,0.5l6.9-4
	c0.8,0.9,1.7,1.7,2.8,2.4l0.8,0.5l0,0l-3.6,2c-1.9,1.1-0.4,3.5,2.7,1.6l1.7-0.9l0,0c0.9-0.5,1.9-0.5,2.8,0l0,0
	c0.5,0.5,0.4,1.3-0.7,1.9l-0.8,0.4l-3.9,2.1c-2.1,1.2-0.3,3.3,2.7,1.6l6.3-3.5c0.9-0.6,2.1-0.6,3.1-0.1l0,0c0.7,0.5,0.4,1.3-0.7,1.9
	l-2.7,1.5c-2.3,1.2,0,3.2,2.7,1.6l2.7-1.5c3.2,0.3,5.3,0.4,8.9-1.6l0,0C43.8,47.8,46.7,46.3,49.5,44.5
	C49.5,44.5,49.5,44.5,49.5,44.5z M32.2,44.5c0.9-0.6,2.1-0.6,3.1-0.1c0.5,0.5,0.4,1.3-0.7,1.9l-0.4,0.3c-0.9,0.6-2.1,0.6-3.1,0.1
	c-0.5-0.5-0.4-1.3,0.7-1.9L32.2,44.5L32.2,44.5z M19.8,20l-1.3,0.8c-0.5,0.4-1.2,0.4-1.6-0.1c-0.2-0.2-0.3-0.4-0.3-0.6
	c0-1.1,0.6-2.1,1.6-2.7l1.3-0.8c0.5-0.4,1.2-0.4,1.6,0.1c0.2,0.2,0.3,0.4,0.3,0.6C21.4,18.5,20.8,19.5,19.8,20
	C19.8,20,19.8,20,19.8,20z M2.5,30l0.4-0.3c0.9-0.5,1.9-0.4,1.9,0.7l0,0c0,1.1-0.6,2.1-1.6,2.7l-0.4,0.3C0.9,34.4,0,31.6,2.5,30
	C2.5,30,2.5,30,2.5,30z M37.8,4.6l1.7,0.7c0.7,0.2,1.1,0.9,1.1,1.6v15.8c0,0.6,0.3,1.2,0.8,1.5L54.5,32c0.5,0.3,0.8,0.9,0.8,1.5
	l-0.1,1.7c0,0.6-0.4,1.2-0.9,1.5c-0.5,0.3-1.1,0.3-1.6,0l-16.5-9.6c-0.5-0.3-0.8-0.9-0.8-1.5l0.1-19.4c0-0.6,0.3-1.1,0.8-1.5
	C36.8,4.4,37.3,4.4,37.8,4.6C37.8,4.6,37.8,4.6,37.8,4.6z M29.9,27.9c0.7-0.4,1.6-0.1,2,0.7c0.3,0.7,0.1,1.5-0.5,1.9l-8.8,5.2
	c-0.7,0.4-1.6,0.1-2-0.7c-0.3-0.7-0.1-1.5,0.5-1.9L29.9,27.9z"/>
<g>
	<path class="st1" d="M78.4,27.5c1,0.1,1.7,0.9,1.6,1.9c-0.1,0.8-0.7,1.5-1.6,1.6h-9.8c-1,0.1-1.8-0.7-1.9-1.7c0-0.2,0-0.3,0-0.5
		l2.4-17c0.1-1,0.9-1.7,1.9-1.7c1.1,0,2,0.9,2,2c0,0.1,0,0.2,0,0.3l-2.1,15.1H78.4z"/>
	<path class="st1" d="M88.4,17.6l-1.7,12c-0.1,0.9-0.9,1.7-1.9,1.7c-1.1,0-1.9-0.8-1.9-1.9c0-0.1,0-0.2,0-0.3l1.7-12
		c0.1-0.9,0.9-1.6,1.9-1.6c1.1,0,1.9,0.9,1.9,1.9C88.4,17.4,88.4,17.5,88.4,17.6z M85.4,11.6c0-1.1,0.8-2,1.9-2s2,0.8,2,1.9
		s-0.8,2-1.9,2c0,0,0,0-0.1,0C86.3,13.5,85.4,12.6,85.4,11.6L85.4,11.6z"/>
	<path class="st1" d="M90.3,29l1.7-12c0.1-0.9,0.9-1.7,1.9-1.7c1.1,0,1.9,0.9,1.9,1.9c0,0.1,0,0.2,0,0.3l-0.2,1.3
		c1-2.1,3.2-3.5,5.5-3.4c3,0,5.3,2,4.6,7l-1,7c-0.1,1.1-1,1.8-2.1,1.7c-1.1-0.1-1.8-1-1.7-2.1c0-0.1,0-0.1,0-0.2l0.9-6.5
		c0.3-2.7-0.9-3.8-2.7-3.8c-1.9,0.1-3.6,1.4-4.1,3.3l-1,7.4c-0.4,1-1.5,1.5-2.5,1.1C90.9,30.4,90.4,29.8,90.3,29z"/>
	<path class="st1" d="M108.4,28.8l2.3-16.3c0.1-1.3,1.2-2.2,2.5-2.2h9.7c1,0,1.7,0.8,1.7,1.7c0,1-0.8,1.7-1.7,1.7h-8.5l-0.7,5.1h5.3
		c0.9,0,1.7,0.7,1.7,1.7c0,0.9-0.7,1.7-1.7,1.7h-5.8l-0.7,5.3h8.3c1,0,1.7,0.8,1.7,1.8c0,0.9-0.8,1.7-1.7,1.7h-10.5
		c-1,0-1.9-0.7-1.9-1.7C108.4,29.2,108.4,29,108.4,28.8z"/>
	<path class="st1" d="M138.2,29.5c0,0.9-0.6,1.7-1.6,1.7c-0.1,0-0.1,0-0.2,0c-0.6,0-1.2-0.3-1.5-0.9l-2.9-4.4l-4.6,4.8
		c-0.3,0.4-0.8,0.6-1.3,0.6c-0.9,0-1.5-0.7-1.5-1.6c0.1-0.8,0.6-1.6,1.3-2.1l4.2-4.3l-3.3-4.9c-0.2-0.3-0.4-0.7-0.4-1.1
		c0-0.9,0.6-1.7,1.6-1.7c0.1,0,0.1,0,0.2,0c0.6,0,1.2,0.3,1.5,0.9l3,4.5l4.5-4.8c0.4-0.4,0.8-0.6,1.3-0.6c0.9,0,1.6,0.7,1.6,1.5
		c0,0,0,0,0,0.1c-0.1,0.8-0.6,1.6-1.3,2l-4.2,4.3l3.3,4.9C138.1,28.6,138.2,29.1,138.2,29.5z"/>
</g>
<g>
	<path class="st1" d="M65.1,42.3l0.9-6.5c0-0.2,0.2-0.4,0.4-0.4h3.8c0.2,0,0.3,0.2,0.2,0.4c0,0.1-0.1,0.2-0.2,0.2h-3.6l-0.4,2.7h2.5
		c0.2,0,0.3,0.2,0.2,0.4c0,0.1-0.1,0.2-0.2,0.2h-2.6L65.8,42h3.6c0.2,0,0.3,0.1,0.4,0.2c0,0.2-0.1,0.3-0.2,0.4c0,0-0.1,0-0.1,0h-4
		c-0.1,0-0.3,0-0.3-0.2C65.1,42.4,65,42.4,65.1,42.3z"/>
	<path class="st1" d="M74.8,42.4c0,0.2-0.1,0.3-0.3,0.3c-0.1,0-0.2-0.1-0.3-0.2l-1.3-2.1L71,42.6c-0.1,0.1-0.2,0.1-0.3,0.1
		c-0.2,0-0.3-0.1-0.3-0.3c0-0.1,0.1-0.3,0.2-0.4l1.9-2.1l-1.3-2.2c0-0.1,0-0.1,0-0.2c0-0.2,0.1-0.3,0.3-0.3c0.1,0,0.2,0.1,0.3,0.2
		l1.2,2.1l1.9-2.1c0.1-0.1,0.2-0.1,0.3-0.1c0.2,0,0.3,0.1,0.3,0.3c0,0,0,0,0,0c0,0.1-0.1,0.3-0.2,0.4L73.5,40l1.3,2.2
		C74.8,42.3,74.8,42.4,74.8,42.4z"/>
	<path class="st1" d="M81.4,39.6c0.1,1.7-1.3,3.1-3,3.2c-0.8,0-1.6-0.4-1.9-1.2l-0.4,2.8c0,0.2-0.2,0.3-0.4,0.3
		c-0.2,0-0.3-0.1-0.3-0.3c0,0,0,0,0-0.1l0.9-6.8c0-0.2,0.2-0.3,0.4-0.3c0.2,0,0.3,0.2,0.3,0.4c0,0,0,0,0,0l-0.1,0.7
		c0.5-0.7,1.3-1.1,2.1-1.1c1.2,0,2.2,0.9,2.3,2.2C81.4,39.5,81.4,39.5,81.4,39.6z M80.7,39.7c0.1-0.9-0.6-1.7-1.5-1.8
		c-0.1,0-0.1,0-0.2,0c-1.1,0-2,0.9-2.2,2v0.4c-0.2,0.9,0.4,1.8,1.3,2c0.1,0,0.2,0,0.3,0C79.8,42.1,80.8,41,80.7,39.7L80.7,39.7z"/>
	<path class="st1" d="M85.7,37.5c0,0.2-0.2,0.4-0.5,0.4c0,0,0,0,0,0c-0.9,0-1.8,0.6-2.1,1.5l-0.4,3c0,0.2-0.2,0.3-0.4,0.3
		c-0.2,0-0.3-0.2-0.3-0.4c0,0,0,0,0,0l0.7-4.8c0-0.2,0.2-0.3,0.4-0.3c0.2,0,0.3,0.1,0.3,0.3c0,0,0,0,0,0.1l-0.1,0.9
		c0.4-0.8,1.2-1.3,2.1-1.3C85.5,37.2,85.7,37.3,85.7,37.5C85.7,37.5,85.7,37.5,85.7,37.5z"/>
	<path class="st1" d="M91,39.9c0,0.2-0.2,0.4-0.5,0.4c0,0,0,0,0,0h-4.1c-0.2,0.9,0.4,1.8,1.4,1.9c0.1,0,0.3,0,0.4,0
		c0.5,0,0.9-0.2,1.3-0.4c0.1-0.1,0.2-0.1,0.3-0.1c0.1,0,0.2,0.1,0.2,0.2c0,0,0,0,0,0c0,0.2-0.1,0.3-0.3,0.4
		c-0.5,0.4-1.2,0.6-1.8,0.6c-1.2,0.1-2.3-0.8-2.4-2.1c0-0.2,0-0.5,0.1-0.7c0.2-1.5,1.5-2.7,3-2.8c1.2-0.1,2.3,0.9,2.3,2.1
		C91.1,39.6,91.1,39.7,91,39.9z M86.5,39.7h3.8c0.1-0.9-0.5-1.7-1.4-1.8c-0.1,0-0.2,0-0.3,0C87.6,37.9,86.7,38.7,86.5,39.7z"/>
	<path class="st1" d="M91.6,41.9c0-0.1-0.1-0.2-0.1-0.4c0-0.2,0.1-0.3,0.3-0.4c0.1,0,0.3,0.1,0.3,0.3c0.2,0.5,0.7,0.8,1.3,0.7
		c0.7,0.1,1.4-0.3,1.5-1c0-0.4-0.4-0.8-0.8-0.8l-0.8-0.2c-0.7,0-1.3-0.6-1.3-1.3c0.1-1,1-1.7,2-1.6c0,0,0,0,0,0
		c0.7-0.1,1.4,0.3,1.7,0.9c0,0.1,0,0.2,0,0.3c0,0.2-0.1,0.3-0.3,0.3c0,0,0,0,0,0c-0.2,0-0.3-0.1-0.4-0.3c-0.2-0.4-0.6-0.6-1.1-0.6
		c-0.6-0.1-1.2,0.3-1.3,1c0,0,0,0,0,0c0,0.4,0.4,0.7,0.8,0.8l0.7,0.2c0.7,0.1,1.3,0.6,1.3,1.3c-0.2,1.1-1.2,1.9-2.3,1.7
		C92.6,42.8,92,42.5,91.6,41.9z"/>
	<path class="st1" d="M96.4,41.9c0-0.1-0.1-0.2-0.1-0.4c0-0.2,0.1-0.4,0.3-0.4c0,0,0,0,0,0c0.1,0,0.3,0.1,0.3,0.3
		c0.2,0.5,0.7,0.8,1.3,0.7c0.7,0.1,1.4-0.3,1.5-1c0-0.4-0.4-0.8-0.8-0.8l-0.8-0.2c-0.7,0-1.3-0.6-1.3-1.3c0.1-1,1-1.7,2-1.6
		c0,0,0,0,0,0c0.7-0.1,1.3,0.3,1.6,0.9c0,0.1,0,0.2,0,0.3c0,0.2-0.1,0.3-0.3,0.3c0,0,0,0,0,0c-0.2,0-0.3-0.1-0.4-0.3
		c-0.2-0.4-0.6-0.6-1.1-0.6c-0.6-0.1-1.2,0.3-1.3,1c0,0,0,0,0,0c0,0.5,0.4,0.8,0.9,0.8c0,0,0,0,0,0l0.7,0.2c0.7,0.1,1.3,0.6,1.3,1.3
		c-0.2,1.1-1.2,1.9-2.3,1.7C97.4,42.8,96.8,42.5,96.4,41.9z"/>
	<path class="st1" d="M110.1,38.4c0.2,2.2-1.5,4.1-3.7,4.3c-0.2,0-0.4,0-0.6,0h-1.6c-0.2,0-0.3-0.1-0.3-0.3c0,0,0,0,0-0.1l0.9-6.5
		c0-0.2,0.2-0.4,0.4-0.4h1.6c1.6-0.2,3,0.9,3.2,2.4C110.1,38.1,110.1,38.2,110.1,38.4z M109.4,38.4c0.1-1.2-0.8-2.3-2-2.4
		c-0.2,0-0.4,0-0.6,0h-1.2l-0.9,6.1h1.2c1.8,0.1,3.3-1.4,3.4-3.2C109.4,38.7,109.4,38.6,109.4,38.4L109.4,38.4z"/>
	<path class="st1" d="M116,39.9c0,0.2-0.2,0.4-0.5,0.4c0,0,0,0,0,0h-4.1c-0.2,0.9,0.4,1.8,1.4,1.9c0.1,0,0.3,0,0.4,0
		c0.5,0,0.9-0.2,1.3-0.4c0.1-0.1,0.2-0.1,0.3-0.1c0.1,0,0.2,0.1,0.2,0.2c0,0,0,0,0,0c0,0.2-0.1,0.3-0.3,0.4
		c-0.5,0.4-1.2,0.6-1.8,0.6c-1.2,0.1-2.3-0.8-2.4-2.1c0-0.2,0-0.5,0.1-0.7c0.2-1.5,1.5-2.7,3-2.8c1.2-0.1,2.3,0.9,2.3,2.1
		C116,39.5,116,39.7,116,39.9z M111.5,39.7h3.8c0.1-0.9-0.5-1.7-1.4-1.8c-0.1,0-0.2,0-0.3,0C112.6,37.9,111.7,38.7,111.5,39.7z"/>
	<path class="st1" d="M116.7,42.4l0.9-6.8c0-0.2,0.2-0.3,0.4-0.3c0.2,0,0.3,0.2,0.3,0.4c0,0,0,0,0,0l-1,6.8c0,0.2-0.2,0.3-0.4,0.3
		C116.8,42.7,116.7,42.6,116.7,42.4C116.7,42.4,116.7,42.4,116.7,42.4z"/>
	<path class="st1" d="M120,37.7l-0.7,4.8c0,0.2-0.2,0.3-0.4,0.3c-0.2,0-0.3-0.1-0.3-0.3c0,0,0,0,0-0.1l0.7-4.8
		c0-0.2,0.2-0.3,0.4-0.3C119.9,37.3,120,37.5,120,37.7z M119.6,35.6c0-0.2,0.2-0.4,0.4-0.4c0.2,0,0.4,0.2,0.4,0.4s-0.2,0.4-0.4,0.4
		l0,0C119.8,35.9,119.6,35.8,119.6,35.6z"/>
	<path class="st1" d="M125.8,37.6c0,0.1,0,0.1,0,0.2l-2.7,4.7c-0.1,0.2-0.2,0.3-0.4,0.3c-0.2,0-0.3-0.1-0.3-0.3l-1.3-4.7
		c0-0.1,0-0.1,0-0.2c0-0.2,0.1-0.3,0.3-0.3c0,0,0,0,0,0c0.2,0,0.3,0.1,0.3,0.3l1.2,4.2l2.4-4.2C125.5,37.3,125.7,37.4,125.8,37.6
		C125.8,37.5,125.8,37.5,125.8,37.6z"/>
	<path class="st1" d="M131.2,39.9c0,0.2-0.2,0.4-0.5,0.4c0,0,0,0,0,0h-4.1c-0.2,0.9,0.4,1.8,1.4,1.9c0.1,0,0.3,0,0.4,0
		c0.5,0,0.9-0.2,1.3-0.4c0.1-0.1,0.2-0.1,0.3-0.1c0.1,0,0.2,0.1,0.2,0.2c0,0,0,0,0,0c0,0.2-0.1,0.3-0.3,0.4
		c-0.5,0.4-1.2,0.6-1.8,0.6c-1.2,0.1-2.3-0.8-2.4-2.1c0-0.2,0-0.5,0.1-0.7c0.2-1.6,1.5-2.8,3.2-2.8c1.2,0,2.2,1,2.2,2.2
		C131.3,39.6,131.2,39.7,131.2,39.9z M126.7,39.7h3.8c0.1-0.9-0.5-1.7-1.4-1.8c-0.1,0-0.2,0-0.3,0C127.8,37.9,126.9,38.7,126.7,39.7
		z"/>
	<path class="st1" d="M135.5,37.5c0,0.2-0.2,0.4-0.5,0.4c0,0,0,0,0,0c-0.9,0-1.8,0.6-2.1,1.5l-0.4,3c0,0.2-0.2,0.3-0.4,0.3
		c-0.2,0-0.3-0.2-0.3-0.4c0,0,0,0,0,0l0.7-4.8c0-0.2,0.2-0.3,0.4-0.3c0.2,0,0.3,0.1,0.3,0.3c0,0,0,0,0,0.1l-0.1,0.9
		c0.4-0.8,1.2-1.3,2.1-1.3C135.3,37.2,135.5,37.3,135.5,37.5C135.5,37.5,135.5,37.5,135.5,37.5z"/>
	<path class="st1" d="M141,37.7l-2.7,4.6l0,0l-1.3,2.3c-0.1,0.1-0.2,0.1-0.3,0.1c-0.2,0-0.3-0.1-0.3-0.3c0,0,0,0,0,0
		c0-0.1,0-0.2,0-0.2l1-1.7l0,0l-1.3-4.7c0-0.1,0-0.1,0-0.2c0-0.2,0.1-0.3,0.3-0.3c0,0,0,0,0,0c0.2,0,0.3,0.1,0.3,0.3l1.2,4.2
		l2.4-4.2c0.1-0.2,0.3-0.2,0.4-0.1c0.1,0.1,0.2,0.1,0.2,0.3C141,37.6,141,37.7,141,37.7z"/>
</g>
</svg>
